<svg data-v-423bf9ae="" xmlns="http://www.w3.org/2000/svg" viewBox="0 0 897 485" class="iconLeft"><!----><!----><!----><g data-v-423bf9ae="" id="0e9cdcd6-2ac7-4431-8c61-303b81fdf5e5" fill="black" transform="matrix(5.940593835033989,0,0,5.940593835033989,462.3889420527639,192.98136466791226)"><path d="M5.57 13.34C8.53 13.34 10.51 11.17 10.51 8.46C10.51 5.75 8.53 3.59 5.57 3.59C2.60 3.59 0.63 5.75 0.63 8.46C0.63 11.17 2.60 13.34 5.57 13.34ZM5.57 12.02C3.49 12.02 2.17 10.37 2.17 8.46C2.17 6.53 3.49 4.91 5.57 4.91C7.66 4.91 8.97 6.53 8.97 8.46C8.97 10.37 7.66 12.02 5.57 12.02ZM15.11 13.34C16.03 13.34 16.77 13.07 17.38 12.60L16.57 11.58C16.20 11.93 15.69 12.13 15.14 12.13C13.84 12.13 13.07 11.14 13.07 9.84C13.07 8.55 13.84 7.57 15.14 7.57C15.69 7.57 16.20 7.77 16.57 8.12L17.38 7.10C16.77 6.64 16.03 6.36 15.11 6.36C13.05 6.36 11.62 7.89 11.62 9.84C11.62 11.81 13.05 13.34 15.11 13.34ZM21.38 13.33C22.82 13.33 24.34 12.67 24.34 10.31L24.34 6.53L22.93 6.53L22.93 10.32C22.93 11.43 22.39 12.12 21.38 12.12C20.37 12.12 19.83 11.43 19.83 10.32L19.83 6.53L18.42 6.53L18.42 10.31C18.42 12.67 19.94 13.33 21.38 13.33ZM26.07 13.15L27.49 13.15L27.49 3.24L26.07 3.24ZM32.19 13.33C33.63 13.33 35.15 12.67 35.15 10.31L35.15 6.53L33.73 6.53L33.73 10.32C33.73 11.43 33.19 12.12 32.19 12.12C31.18 12.12 30.64 11.43 30.64 10.32L30.64 6.53L29.22 6.53L29.22 10.31C29.22 12.67 30.74 13.33 32.19 13.33ZM36.18 12.22C36.66 12.88 37.67 13.34 38.91 13.34C40.54 13.34 41.55 12.54 41.55 11.35C41.55 9.00 38.05 9.79 38.05 8.36C38.05 7.86 38.43 7.53 39.20 7.51C39.68 7.50 40.24 7.73 40.63 8.11L41.40 7.22C40.96 6.75 40.12 6.36 39.14 6.36C37.57 6.36 36.60 7.19 36.60 8.41C36.60 10.82 40.05 10.09 40.05 11.38C40.05 11.87 39.64 12.21 38.82 12.21C38.16 12.21 37.57 11.97 37.09 11.35ZM50.63 13.15L45.98 8.20L50.33 3.82L48.37 3.82L44.67 7.67L44.67 3.82L43.18 3.82L43.18 13.15L44.67 13.15L44.67 8.76L48.65 13.15ZM52.12 5.26C52.63 5.26 53.04 4.86 53.04 4.36C53.04 3.86 52.63 3.46 52.12 3.46C51.63 3.46 51.22 3.86 51.22 4.36C51.22 4.86 51.63 5.26 52.12 5.26ZM51.45 13.15L52.84 13.15L52.84 6.53L51.45 6.53ZM54.82 13.15L56.23 13.15L56.23 3.24L54.82 3.24ZM58.10 13.15L59.51 13.15L59.51 3.24L58.10 3.24ZM67.62 9.70C67.62 7.73 66.30 6.36 64.37 6.36C62.39 6.36 60.96 7.89 60.96 9.84C60.96 11.80 62.37 13.31 64.55 13.31C65.68 13.31 66.65 12.92 67.24 12.25L66.27 11.46C65.84 11.94 65.27 12.19 64.53 12.19C63.29 12.19 62.55 11.33 62.45 10.15L67.62 10.15ZM64.37 7.50C65.41 7.50 66.08 8.12 66.22 9.17L62.50 9.17C62.71 8.17 63.39 7.50 64.37 7.50ZM72.11 6.36C71.33 6.36 70.80 6.74 70.42 7.41L70.25 6.53L69.02 6.53L69.02 13.15L70.44 13.15L70.44 9.70C70.44 8.62 71.01 7.66 72.04 7.66C72.27 7.66 72.49 7.70 72.68 7.79L73.11 6.58C72.93 6.47 72.55 6.36 72.11 6.36Z"></path></g><!----><g data-v-423bf9ae="" id="2747dc0d-cf67-4085-b42b-93129724b483" transform="matrix(2.3201000637478297,0,0,2.3201000637478297,0.9342349728090937,0.7710986094846817)" stroke="none" fill="black"><path d="M82.713 39.629a80.437 80.437 0 0 0 7.9 4.267c.078-.03.157-.057.235-.088 11.527-4.635 17.111-17.738 12.477-29.264C98.688 3.019 85.585-2.567 74.059 2.069c-6.128 2.464-10.576 7.322-12.702 13.063 1.379 4.09 3.474 7.918 6.342 11.568 3.759 4.771 8.81 9.12 15.014 12.929z"></path><path d="M184.233 182.59c-25.417-9.776-37.376-23.912-43.953-36.59a65.406 65.406 0 0 1-6.619-21.356c3.501-3.077 5.994-7.887 6.288-15.564-.844-22.348-4.3-35.102-14.112-53.996-5.679-10.779-14.9-14.738-22.525-14.275a8.038 8.038 0 0 0-1.868.207 17.062 17.062 0 0 0-3.874 1.092c-1.634.687-3.002 1.749-4.131 3.064 7.059 3.04 12.453 4.313 12.529 4.329 2.667.603 4.89 2.168 6.317 4.425a9.933 9.933 0 0 1 1.309 7.542c-1.019 4.522-5.119 7.805-9.75 7.805-.738 0-1.478-.081-2.202-.243-1.408-.328-8.621-2.107-17.691-6.185a106.161 106.161 0 0 1-9.899-5.103 41.61 41.61 0 0 1-9.999 1.215C57.171 58.948 49.2 57.33 39.92 52.61a7.998 7.998 0 0 0-10.76 3.492 7.998 7.998 0 0 0 3.492 10.763c11.272 5.761 21.891 8.094 31.349 8.094h.052c11.355 0 20.822-3.293 28.057-7.219 4.472 12.309 11.32 29.231 12.667 45.205L72.149 134.86a12.489 12.489 0 0 0-5.309 12.724l9.76 51.068c1.144 5.988 6.387 10.157 12.267 10.157.778 0 1.566-.073 2.358-.225 6.781-1.297 11.228-7.844 9.933-14.624l-.002-.002-8.21-42.952 18.05-12.122a91.727 91.727 0 0 0 7.015 18.477c8.868 17.598 26.433 36.935 57.331 48.592 6.45 2.455 13.672-.784 16.127-7.235 2.455-6.452-.783-13.673-7.236-16.128z"></path><path d="M43.283 17.519c2.19 8.193 6.115 15.234 10.851 21.036 9.154 11.207 21.065 18.136 30.638 22.465 9.588 4.309 16.947 5.972 17.308 6.057a8.004 8.004 0 0 0 9.563-6.048 7.999 7.999 0 0 0-6.049-9.56v-.003l-.05-.01c-.949-.207-12.548-3.129-23.877-10.121-5.672-3.482-11.245-7.947-15.54-13.399-4.204-5.35-7.228-11.555-8.32-19.197l1.839-1.112 2.074-1.254L57.863 0l-2.071 1.253-1.881 1.138a7.95 7.95 0 0 0-5.144-1.087c-4.2.537-7.209 4.241-6.959 8.407l-1.892 1.144-2.063 1.248 3.416 5.653.434.718 1.58-.955zM42.506 24.5l-6.773-11.195L0 34.918C22.883 38.322 42.506 24.5 42.506 24.5z"></path></g><!----></svg>